<svg width="117" height="115" viewBox="0 0 117 115" fill="none" xmlns="http://www.w3.org/2000/svg">
<path d="M40.8308 0.581591C40.8308 0.581591 47.7508 13.1803 59.4402 13.1803C72.0402 13.1803 87.5468 3.48959 97.6282 10.0789C107.707 16.6696 111.583 31.5963 106.932 45.1656C106.932 45.1656 117.912 33.1496 113.135 16.8643C108.869 2.32559 101.309 1.35626 96.8522 0.581591C93.4148 -0.0170752 80.5695 2.13226 65.2548 6.39626C51.7322 10.1629 40.8308 0.581591 40.8308 0.581591Z" fill="#114B5F"/>
<path d="M10.3335 70.3003C10.3335 70.3003 19.2495 72.6256 21.1895 83.7403C23.1268 94.8536 20.6722 107.26 33.0775 108.423C44.8135 109.523 44.8375 81.8016 55.5628 82.5763C55.5628 82.5763 53.0415 88.4496 50.5242 98.0843C47.5508 109.456 42.3815 114.238 32.1735 114.238C22.2495 114.238 17.3108 105.45 16.4068 95.3709C15.5028 85.2896 16.0202 76.3736 10.3335 70.3003Z" fill="#114B5F"/>
<path d="M114.461 49.7013C112.553 49.5307 109.048 49.1587 104.582 48.3373C91.3544 45.9333 71.5691 37.9507 56.4317 23.6173C49.9517 17.4827 40.0557 -1.33053e-06 20.4864 -1.33053e-06C-0.264263 -1.33053e-06 0.511743 30.0533 0.511743 30.0533C0.35041 41.452 3.15575 52.4333 7.15575 63.0107C8.83041 62.1733 10.6837 61.3147 12.6664 60.5107C7.65707 47.604 3.54241 32.3453 8.79307 20.004C11.4757 13.6613 16.5157 8.35734 23.7717 8.14C31.5104 7.908 39.0464 14.7467 44.3677 19.5853C48.2597 23.136 51.8104 27.0293 55.6557 30.6267C67.8771 42.04 86.0984 50.1507 103.186 50.9107C104.97 50.988 106.738 50.988 108.474 50.9107C110.429 50.8173 112.398 50.584 114.322 50.1973C114.894 50.072 115.469 49.9493 116.042 49.8093C116.042 49.8093 115.485 49.7787 114.461 49.7013Z" fill="#579464"/>
<path d="M104.003 54.5542C101.856 60.8382 98.1973 71.7729 97.728 73.1942C95.944 78.6062 94.72 84.1902 93.9133 89.8342C93.0293 96.1156 93.34 103.326 86.8267 106.722C83.7093 108.334 79.4293 108.909 76.1573 107.373C72.7467 105.776 71.5507 102.954 70.4507 99.6356C69.1947 95.8516 68.4493 91.9129 67.116 88.1436C66.124 85.3209 64.7907 82.5156 63.1613 79.9569L62.96 79.6609C62.448 78.8702 61.9067 78.0942 61.332 77.3516C61.2387 77.2262 61.1453 77.1182 61.052 77.0102C61.0227 76.9942 60.9907 76.9636 60.9747 76.9316C57.2227 72.1556 52.368 68.2622 46.9867 65.3942C46.6 65.1929 46.212 64.9916 45.808 64.7902C36.412 60.1222 25.7893 59.9356 16.004 63.3942C15.6627 63.5182 15.3213 63.6409 14.98 63.7662C12.252 64.8049 9.44399 66.0916 6.80799 67.6422C4.34266 69.0849 2 70.7289 0 72.6209C2.372 71.2716 4.83867 70.0462 7.36534 69.0236C10.5147 67.7049 13.7867 66.6822 17.104 66.0156C22.8733 64.8369 28.812 64.7276 34.6747 66.0916C41.576 67.7049 47.84 71.3342 53.0667 76.2342C53.516 76.6529 53.9667 77.0862 54.4 77.5369C55.9973 79.1489 57.268 80.9329 58.2933 82.8409C59.7027 85.4756 60.6493 88.3462 61.2853 91.4009C62.4787 97.1529 63.72 103.605 67.7053 108.305C71.396 112.661 77.1027 114.382 82.624 114.244C97.8213 113.856 98.208 99.1236 100.209 86.2516C101.164 80.1062 106.849 69.1142 111.077 54.4156C108.989 54.5449 106.576 54.6196 104.003 54.5542Z" fill="#579464"/>
<path d="M55.9051 17.3953C55.9051 17.3953 58.8744 20.366 61.9104 22.8593C63.1917 23.91 65.0224 23.9673 66.3744 23.0087C70.9664 19.7487 82.1704 13.2047 91.9691 18.6647C91.9691 18.6647 85.0824 10.962 76.7464 13.6806C68.4091 16.3993 61.7037 19.3887 55.9051 17.3953Z" fill="#D3D3F2"/>
<path d="M15.4909 53.9436C15.4909 53.9436 8.00028 23.4969 17.9069 16.4903C27.8136 9.48226 41.3456 23.4969 41.3456 23.4969C41.3456 23.4969 17.9069 14.5569 15.4909 53.9436Z" fill="#D3D3F2"/>
<path d="M87.2566 90.9149C90.3566 83.0749 92.0899 76.8989 92.0899 76.8989C92.0899 76.8989 93.0566 101.547 83.8739 102.512C74.6912 103.48 72.7592 93.3309 72.7592 93.3309C72.7592 93.3309 83.1499 101.306 87.2566 90.9149Z" fill="#D3D3F2"/>
<path d="M50.6486 78.6518C50.6486 78.6518 39.9552 65.2398 18.0272 71.2212C18.0272 71.2212 41.4059 73.3958 47.2059 84.2692C47.2059 84.2692 48.8366 80.1012 50.6486 78.6518Z" fill="#D3D3F2"/>
</svg>
